<svg fill="none" height="42" viewBox="0 0 150 42" width="150" xmlns="http://www.w3.org/2000/svg"><path d="m130.927 41.0377h-45.4061c-7.7522 0-14.0894-6.3371-14.0894-14.0894 0-7.7522 6.3372-14.0894 14.0894-14.0894 1.2305 0 2.3995.1846 3.5685.4922 1.3536-7.6292 8.0599-13.3511 15.9356-13.3511 5.537 0 10.705 2.89171 13.658 7.56768 3.446-2.95324 7.814-4.55291 12.306-4.55291 10.459 0 19.011 8.55213 19.011 19.01153 0 10.4593-8.552 19.0114-19.073 19.0114zm-45.3446-26.8868c-7.0754 0-12.8589 5.7835-12.8589 12.8589 0 7.0755 5.7835 12.8589 12.8589 12.8589h45.4066c9.782 0 17.78-7.9983 17.78-17.7809s-7.998-17.78099-17.78-17.78099c-4.492 0-8.737 1.6612-12.06 4.73749l-.553.55373-.369-.67678c-2.708-4.79902-7.63-7.69073-12.982-7.69073-7.5065 0-13.8437 5.59885-14.7051 13.04348l-.0615.7383-.6768-.2461c-1.3535-.4307-2.7071-.6153-3.9992-.6153z" fill="#5feada"/><path d="m8.12141 19.5652c4.73749 0 8.12139 3.1993 8.12139 7.6907s-3.3839 7.6907-8.12139 7.6907-8.12141-3.1993-8.12141-7.6907c0-4.5529 3.3224-7.6907 8.12141-7.6907zm0 12.1821c2.33799 0 3.99919-1.9073 3.99919-4.5529s-1.6612-4.5529-3.99919-4.5529c-2.33798 0-3.99918 1.9688-3.99918 4.6144s1.6612 4.4914 3.99918 4.4914z" fill="#31384e"/><path d="m29.3478 34.7006h-3.0763l-.4922-1.169c-.8613.9229-2.1534 1.4767-3.5685 1.4767-2.5841 0-4.3683-1.7228-4.3683-4.3069v-6.9524h3.8761v6.2757c0 1.0459.7383 1.7842 1.7227 1.7842 1.169 0 2.0304-.8614 2.0304-2.1534v-5.9065h3.8761z" fill="#31384e"/><path d="m36.6079 23.7489h2.5841v2.9532h-2.5841v3.9992c0 .7383.4922 1.169 1.169 1.169.3691 0 .7998-.0615 1.292-.123l.4922 2.8917c-.9844.2461-1.8458.3691-2.7071.3691-2.4611 0-4.1223-1.5381-4.1223-3.8761v-4.4299h-1.8457v-2.9532h1.8457v-3.1993h3.8762z" fill="#31384e"/><path d="m51.7432 23.4414c3.6916 0 6.2141 2.338 6.2141 5.7834 0 3.384-2.584 5.7219-6.2141 5.7219-3.63 0-6.2141-2.3379-6.2141-5.7219 0-3.3839 2.5841-5.7834 6.2141-5.7834zm0 8.4906c1.3536 0 2.2765-1.1075 2.2765-2.7072 0-1.5996-.9229-2.7686-2.2765-2.7686-1.3535 0-2.2764 1.1074-2.2764 2.7686.0615 1.5997.9844 2.7072 2.2764 2.7072z" fill="#31384e"/><path d="m60.2953 26.6407h-1.8458v-2.9533h1.8458v-1.0459c0-2.338 1.6612-3.8761 4.1223-3.8761.8613 0 1.7227.123 2.7071.3691l-.4922 2.8917c-.4922-.0615-.9229-.123-1.2921-.123-.7383 0-1.1689.4307-1.1689 1.169v.6152h2.2764v2.9533h-2.2764v7.9983h-3.8762z" fill="#31384e"/><g fill="#5feada"><path d="m85.644 19.5652c1.9073 0 3.8761.6152 5.6603 1.7227l-1.5996 2.7071c-1.169-.7998-2.2765-1.2305-3.4455-1.2305-2.5841 0-4.3683 1.8458-4.3683 4.4914s1.7842 4.4914 4.3683 4.4914c1.169 0 2.338-.4307 3.4455-1.2305l1.5996 2.7071c-1.7227 1.1075-3.753 1.7227-5.6603 1.7227-4.676 0-7.9369-3.1993-7.9369-7.6907 0-4.5529 3.2609-7.6907 7.9369-7.6907z"/><path d="m96.6571 31.009c0 .5537.3691.8614.8614.8614.2461 0 .6152-.0616.9228-.0616l.3692 2.8918c-.7998.1845-1.5997.2461-2.2765.2461-2.3379 0-3.8146-1.4151-3.8146-3.5685v-12.3052h3.8762v11.936z"/><path d="m105.455 23.4414c3.692 0 6.214 2.338 6.214 5.7834 0 3.384-2.584 5.7219-6.214 5.7219s-6.2138-2.3379-6.2138-5.7219c0-3.3839 2.5838-5.7834 6.2138-5.7834zm0 8.4906c1.354 0 2.277-1.1075 2.277-2.7072 0-1.5996-.923-2.7686-2.277-2.7686-1.353 0-2.276 1.1074-2.276 2.7686 0 1.5997.923 2.7072 2.276 2.7072z"/><path d="m124.836 34.7006h-3.076l-.493-1.169c-.861.9229-2.153 1.4767-3.568 1.4767-2.584 0-4.368-1.7228-4.368-4.3069v-6.9524h3.876v6.2757c0 1.0459.738 1.7842 1.722 1.7842 1.169 0 2.031-.8614 2.031-2.1534v-5.9065h3.876z"/><path d="m138.495 34.7006h-3.077l-.492-1.046c-.8.8614-1.969 1.2921-3.261 1.2921-3.014 0-5.106-2.338-5.106-5.7219 0-3.384 2.092-5.7835 5.106-5.7835 1.108 0 2.154.3692 2.954 1.046v-5.4143h3.876zm-5.784-2.8302c1.169 0 1.969-.8614 1.969-2.0919v-1.169c0-1.2305-.8-2.1534-1.969-2.1534-1.23 0-2.153 1.1075-2.153 2.7071 0 1.5997.861 2.7072 2.153 2.7072z"/></g></svg>