<svg fill="none" height="45" viewBox="0 0 160 45" width="160" xmlns="http://www.w3.org/2000/svg"><path d="m57.3381 43.0972 9.244-41.59817h11.3677l-4.9968 22.11077 9.2441-11.1178h12.7418l-11.4926 13.866 4.7469 16.7392h-11.3677l-4.7469-15.8647-3.7476 15.8647zm-41.0986-20.8615 7.9949 20.9865h10.868l9.369-41.59825h-11.2428l-4.7469 21.23635-7.87-21.23635h-11.36765l-9.24405 41.47325h11.4926c1.2492-6.6207 2.9981-13.7411 4.7469-20.8615zm35.727 20.8615 6.7457-30.6052h-11.2428l-6.8705 30.6052zm-3.8725-37.22598c0 .99935.2499 4.37218 6.3709 4.37218 5.1217 0 6.9955-3.24791 6.9955-5.7463 0-1.62395-1.3741-4.4971-6.3709-4.4971-4.4971 0-6.9955 3.12299-6.9955 5.87122zm107.681 6.24598c-4.747-1.3741-10.743.9994-13.617 4.9968.25-1.2492.625-2.7483.875-4.3722h-11.368l-6.621 30.3554h11.243l3.748-17.2389c.749-3.1229 3.248-4.4971 5.496-3.9974 1 .2499 2.374.9994 1.874 3.6227l-3.872 17.4887h11.117l5.122-23.4849c1.249-4.9967-2.998-7.1204-3.997-7.3702zm-37.976 28.2318c4.872-3.9974 7.37-10.7431 7.245-17.2389-.124-6.121-5.371-11.8673-14.365-11.8673-17.2392 0-19.7376 13.3663-20.2373 15.8647-1.2491 6.246.125 14.2409 8.2447 16.3645 5.3716 1.3741 13.7416 1.2492 19.1126-3.123zm-12.742-17.7386c.75-2.2485 2.998-2.7482 3.998-2.7482 2.498 0 3.123 1.499 2.873 2.8732-.625 3.8725-1.874 8.6194-2.374 10.2434-.499 1.7488-2.123 2.6233-3.997 2.6233s-2.998-1.2492-2.873-2.7483c.375-2.4984 1.999-8.9942 2.373-10.2434z" fill="#000"/></svg>