<svg fill="none" height="45" viewBox="0 0 147 45" width="147" xmlns="http://www.w3.org/2000/svg"><g fill="#005aaa"><path d="m126.769 30.3637c.066-.5847.1-1.1743.1-1.7761 0-9.066-7.51-16.4147-16.772-16.4147s-16.7719 7.3487-16.7719 16.4147c0 9.0661 7.5099 16.4124 16.7719 16.4124 7.045 0 13.069-4.2444 15.555-10.2721l-7.229-1.2672c-1.603 2.9331-4.632 4.9098-8.096 4.9098-4.596 0-8.404-3.4591-9.17-8.0068zm-16.44-11.3754c3.924 0 7.283 2.5295 8.649 6.1084h-17.305c1.364-3.5789 4.725-6.1084 8.656-6.1084z"/><path d="m88.8174 12.8628h-8.5632v31.5453h8.5632z"/><path d="m84.537 0c-2.6426 0-4.7791 2.14297-4.7791 4.78255 0 2.63224 2.1365 4.77521 4.7791 4.77521 2.6352 0 4.7741-2.14053 4.7741-4.77521.0025-2.63958-2.1389-4.78255-4.7741-4.78255z"/><path d="m27.8286 2.74976v16.97984h-18.46602v-16.97984h-9.36258v41.63144h9.36258v-16.9824h18.46602v16.9824h9.3675v-41.63144z"/><path d="m66.4865 12.8774v1.6904c-2.4885-1.5045-5.4048-2.3754-8.5339-2.3754-9.079 0-16.4444 7.3438-16.4444 16.405 0 9.0587 7.3654 16.4025 16.4444 16.4025 3.0459 0 5.8914-.8268 8.3384-2.2603v1.6439h8.3578v-31.5061zm-8.1158 25.2068c-5.2998 0-9.5851-4.2444-9.5851-9.4844 0-5.2424 4.2853-9.4917 9.5851-9.4917 5.2973 0 9.5899 4.2493 9.5899 9.4917 0 5.24-4.2926 9.4844-9.5899 9.4844z"/><path d="m144.582 9.93213c-7.888 1.37977-13.882 8.24897-13.975 16.52977v17.9486h8.201l.005-18.2862c0-4.1856 3.141-7.6398 7.189-8.1364z"/></g></svg>