<svg fill="none" height="80" viewBox="0 0 160 80" width="160" xmlns="http://www.w3.org/2000/svg"><g clip-rule="evenodd" fill="#000" fill-rule="evenodd"><path d="m86.2209.217031c-.4801.096015-1.0562 2.016299-2.0163 2.976449-.7681.76811-1.6323.6721-2.1123 1.53623-.1921.28804-.0961.86413-.3841 1.44021-.3841 1.05616-1.8243 1.15218-1.8243 2.40036 0 1.24819 1.2482 1.53622 2.3044 2.49642.8641.7681.8641 1.2481 1.9203 1.6322.8641.288 2.1123-.6721 3.2645-.288.9601.288 1.8242.48 2.0163 1.4402.192.8641 0 2.3043-1.1522 2.1123-.3841 0-2.0163-.5761-4.0326-.3841-2.4964.2881-5.2808 1.0562-5.5689 3.8406-.192 1.5362 1.7283 3.3605 3.5526 2.9765 1.2482-.2881.6721-1.7283 1.3442-2.4964.8641-.9602 6.0489 3.2645 10.7536 3.2645 2.0163 0 3.4565-.4801 4.9927-2.0163.0961-.096.2881-.3841.4801-.3841s.5761.192.6721.2881c3.841 3.0724 6.721 9.2173 20.835 9.3133 2.016 0 4.225.9602 6.049 2.5924 1.632 1.5363 2.592 3.8406 3.553 6.241 1.44 3.5525 3.936 7.105 7.777 10.9456.192.192 3.36 2.6884 3.648 2.8804 0 0 .288.5761.192.8642-.096 2.3043-.48 9.1213 4.609 9.4094 1.248.096.96-.7681.96-1.4402 0-1.1522-.192-2.4004.384-3.5526.864-1.6322-1.824-2.4003-1.728-6.0489.096-2.6884-2.208-2.2083-3.361-4.2246-.672-1.1522-1.248-1.8243-1.248-3.2645.288-8.1612-1.728-13.538-2.688-14.7862-.768-.9602-1.44-1.3442-.672-1.8243 4.224-2.7844 5.185-5.3768 5.185-5.3768 2.208-5.2808 4.224-10.0815 7.009-12.1938.576-.4801 2.016-1.53625 2.88-1.9203 2.592-1.24819 3.937-2.01631 4.705-2.68841 1.152-1.15217 2.112-3.55253.96-5.088758-1.44-1.824273-3.841-.384058-4.993.288048-7.777 4.60869-8.929 12.76992-11.618 17.37862-2.112 3.7445-5.664 6.4329-8.737 6.721-2.304.192-4.897-.2881-7.393-1.4402-6.145-2.6884-9.409-6.145-10.274-6.721-1.632-1.2482-14.402-13.73009-24.6753-14.30618 0 0-1.2482-2.592389-1.6322-2.592389-.7681-.096014-1.5363 1.536229-2.1124 1.728259-.384.09601-1.2481-1.824273-1.8242-1.728259z"/><path d="m40.8061 74.8204c-.9601 0-1.8242-.8641-1.8242-1.8243v-32.1648h-10.5616v35.5253c0 1.7283 1.4402 3.1685 3.1685 3.1685h18.5307c1.7283 0 3.1685-1.4402 3.1685-3.1685v-35.5253h-10.5616v32.1648c-.096.9602-.9601 1.8243-1.9203 1.8243z"/><path d="m76.3314 40.8313h-16.0344c-1.9203 0-3.4565 1.5362-3.4565 3.4565v35.1413h10.6576v-32.2608c0-.9602.7681-1.7283 1.8242-1.7283.9602 0 1.8243.7681 1.8243 1.7283v32.2608h10.5616v-32.2608c0-.9602.7681-1.7283 1.8243-1.7283.9601 0 1.8242.7681 1.8242 1.7283v32.2608h10.6576v-35.1413c0-1.9203-1.5362-3.4565-3.4565-3.4565z"/><path d="m21.3152 69.7316h-10.7536v9.6975h-10.5616v-38.5978h21.4112c1.9203 0 3.4565 1.5362 3.4565 3.4565v21.9873c-.096 1.9203-1.6322 3.4565-3.5525 3.4565zm-7.1051-22.4673c0-1.0562-.8641-1.8243-1.8242-1.8243h-1.8243v19.5869h1.8243c.9601 0 1.8242-.7681 1.8242-1.8242z"/><path d="m137.013 74.9163c0 2.5924-2.113 4.8008-4.705 4.8008-2.593 0-4.705-2.1123-4.705-4.8008 0-2.5923 2.112-4.7047 4.705-4.7047 2.592-.096 4.705 2.0163 4.705 4.7047zm-4.801-4.1286c-2.112 0-3.937 1.8243-3.937 4.0326 0 2.2084 1.825 4.0326 4.033 4.0326s3.936-1.8242 3.936-4.0326c0-2.1123-1.824-4.0326-4.032-4.0326z"/><path d="m134.516 77.6047h-1.248l-1.632-2.2084v2.2084h-1.056v-5.4729h1.056c1.44 0 2.304.5761 2.304 1.6323 0 .6721-.48 1.3442-1.152 1.5362h-.096zm-2.688-2.9765c.768 0 1.152-.288 1.152-.7681s-.384-.6721-1.056-.6721h-.192v1.4402z"/><path d="m113.585 79.4291v-9.6975h-3.649v9.6975h-10.5611v-35.1413c0-1.9203 1.5361-3.4565 3.4561-3.4565h17.859c1.92 0 3.457 1.5362 3.457 3.4565v35.1413zm0-14.4022v-17.8586c0-.9602-.864-1.7283-1.824-1.7283s-1.825.7681-1.825 1.7283v17.7626h3.649z"/></g></svg>